<svg version="1.1" xmlns="http://www.w3.org/2000/svg" viewBox="0 0 800 238" class="svg-blob__svg" preserveAspectRatio="none">
  <path class="svg-blob__path" d="M 89.36920611198164 15.492110077604304 Q 89.36920611198164 15.492110077604304 133.83303619356224 12.583519792321464 Q 178.29686627514286 9.674929507038623 227.64155464764872 9.087472109536089 Q 276.9862430201546 8.500014712033554 319.096098394062 9.16270580357358 Q 361.2059537679694 9.825396895113606 406.5756524666213 8.538700891431645 Q 451.9453511652732 7.252004887749686 492.4903317327494 9.428762304375644 Q 533.0353123002255 11.605519721001603 583.5163770809318 14.948949447757593 Q 633.9974418616379 18.292379174513584 712.4447041805605 17.427882855010544 Q 790.8919664994831 16.563386535507508 792.4307779981544 71.02412837038328 Q 793.9695894968257 125.48487020525906 793.4345498209186 175.82253410090385 Q 792.8995101450115 226.16019799654862 758.7053708172157 225.52207415016767 Q 724.51123148942 224.8839503037867 688.1707008599412 228.48774394991983 Q 651.8301702304625 232.091537596053 611.5341156568609 231.96264634848023 Q 571.2380610832594 231.8337551009075 507.555009171621 232.19137632201296 Q 443.8719572599827 232.54899754311842 373.1020718471434 226.7196592756184 Q 302.33218643430405 220.89032100811838 262.21434195426144 225.74856085226247 Q 222.09649747421886 230.60680069640654 161.43115501252845 229.24593546653014 Q 100.76581255083805 227.88507023665375 56.51147585843711 230.69004958915178 Q 12.257139166036161 233.49502894164982 12.061087393169625 179.5972404057186 Q 11.865035620303088 125.69945186978737 10.850626874956538 63.59873185433227 Q 9.836218129609987 1.4980118388771735 49.602712120795815 8.495060958240739 Q 89.36920611198164 15.492110077604304 133.83303619356224 12.583519792321464"/>
</svg>